<svg viewBox="0 0 90.9 70.14" xmlns="http://www.w3.org/2000/svg"><g fill="#1f483b"><path d="m85.87 38.61c0-14.43-22.82-8.77-22.82-17.74 0-4.64 7.89-8.83 14-8.83 5.27 0 6.86 2.09 6.86 4.64 0 2.29-4.26 6-6.16 7.12l.7 1.46c6-1.08 12.46-6.93 12.46-11.57 0-4.39-4.45-7.63-11.57-7.63-14.18 0-24.67 7.31-24.67 16.34 0 13.73 22.82 9.85 22.82 16.4s-10.1 11.38-17 11.38c-3.56 0-6.23-1.4-6.23-4.58 0-2.73 3.75-6.36 6.29-7.63l-.64-1.52c-6.48 1-12.65 7.5-12.65 12.08 0 5.72 6 8.26 13.16 8.26 11.15 0 25.45-8.14 25.45-18.18z"/><path d="m9.49 65.8h-3.82l1.33-4.45h3.18c22.57 0 34.67-31.26 39.88-48.32l4-13h-21.81l-4 13h8.75l-9.15 29.77h.53c5.92-8.26 10.81-22.88 14.25-34.11h-8.69l1.33-4.35h13l-1 3.29c-4.86 16-15.6 49.37-35.62 49.37h-7.65l-4 13.14h8c14 0 28.63-11.87 33.1-26.49h-.42c-6.92 12.4-19.11 22.15-31.19 22.15z"/></g></svg>