<svg viewBox="0 0 234.86 77.9" xmlns="http://www.w3.org/2000/svg"><g fill="#fff"><path d="m76.29 37.47c-1.84-13.5-22.46-5.3-23.6-13.68-.59-4.34 6.25-9.27 12-10 4.94-.67 6.69 1.09 7 3.47.3 2.14-3.21 6.19-4.85 7.44l.84 1.28c5.45-1.77 10.76-8.07 10.17-12.4-.6-4.16-5.17-6.58-11.85-5.71-13.25 1.8-22.13 10-21 18.42 1.75 12.84 22.59 6.3 23.43 12.43s-7.96 11.92-14.43 12.81c-3.34.47-6-.53-6.42-3.53-.35-2.56 2.69-6.42 4.91-7.93l-.79-1.35c-5.93 1.78-10.87 8.63-10.29 12.91.73 5.35 6.64 7 13.36 6 10.46-1.34 22.8-10.77 21.52-20.16z"/><path d="m121 14.24c2.55-.35 5.64-3.43 5.25-6.29a2.18 2.18 0 0 0 -2.73-1.87c-3 .41-5.62 3.68-5.25 6.35.2 1.31 1.21 2.02 2.73 1.81z"/><path d="m165.43 8.19c2.56-.35 5.65-3.43 5.26-6.29a2.18 2.18 0 0 0 -2.69-1.9c-3 .41-5.62 3.68-5.26 6.35.14 1.34 1.15 2.05 2.69 1.84z"/><path d="m233.6 15.19a36.28 36.28 0 0 1 -10.73 9.21 6.77 6.77 0 0 0 .47-3.63c-.67-4.94-4.32-5.53-5.13-11.41-.32-2.38.49-4 .38-4.78 0-.18-.1-.29-.39-.25a2.09 2.09 0 0 0 -1 .56l-3.44 2.29c-4.83 3.16-11.45 7.3-14.5 12.16-1.73 2.41-7.87 9.79-14.77 10.73-3 .41-2.5-2.32-2-4.15l3.82-12 5-.68c.89-.12 2.28-3.22 2.15-4.17s-1.49-.7-3.45-.44l-2.2.3 2.51-8.31-1.43-.29c-2.19 3.93-3.65 5.67-6.69 6.06l-1.2.17-1.14 3.44-2.92.4c-.83.11-2.28 3.21-2.15 4.17s1.48.7 3.45.43h.11l-3.18 10.28c-1.75 2.37-5.36 6.75-9.32 7.29-3.33.45-2.59-2.13-2-4.16l2.93-9.66a10.09 10.09 0 0 0 .55-4.38c-.31-2.25-2.2-2.84-4.4-2.54-3 .4-5.94 2.65-8.1 4.29a4 4 0 0 0 -4.57-2.57c-3.68.5-6.55 3-8.69 6a8.56 8.56 0 0 0 0-1.63c-.31-2.26-2.2-2.85-4.4-2.55-3.39.46-6.7 3.27-8.9 4.91l1 1.26c2.17-1.39 4.81-2 4 1.51l-.47 1.46c-.55 1.77-1.34 4.27-1.95 6.83-1.74 2.36-5.37 6.79-9.36 7.33-3.33.46-2.59-2.13-2-4.15l2.93-9.66a10.09 10.09 0 0 0 .55-4.38c-.31-2.26-2.2-2.84-4.4-2.54-3.12.42-8.55 4-11.12 5.85a6.55 6.55 0 0 0 -7-3.38c-3.51.47-6.79 3.1-9.35 6.54a9.55 9.55 0 0 0 0-2.13c-.31-2.25-2.21-2.84-4.41-2.54-3.39.46-6.7 3.27-8.9 4.9l1 1.26c2.18-1.38 5.06-2 4 1.58l-5.25 16.6c-3.54 11.57-4.54 14.06-.07 19.93a1 1 0 0 0 .77.32c.59-.08 1-1 1.21-1.8l6.34-20.54c.67 2.69 2.59 4.31 6 3.84a17.68 17.68 0 0 0 3.45-.89c8.77-3.2 14.13-13.13 13.11-20.68a11 11 0 0 0 -.33-1.5c2.38-1.38 7.45-3.14 6.49.54l-3.37 11.24c-1.56 5 1.33 8.47 5.38 7.92 5.41-.74 10.16-4.93 13.52-9.65a14 14 0 0 0 -.07 3.52c.34 2.5 2.24 4 4 3.75.59-.08.89-1 1.2-1.8l4.47-14.35c1.23-3.38 3.64-6.61 7.5-7.14 1.84-.25 2.68.54 2.82 1.55s-.67 2.21-1.89 3.05l.79 1.34c3-1.11 5.94-4.13 6.15-7.28 2.22-1.37 4.86-2 3.88 1.8l-3.3 11.21c-1.59 5 1.33 8.5 5.41 8 5.3-.72 9.95-4.75 13.29-9.34-.41 5.73 3.69 7 7.39 6.52 5.84-.79 12-6.18 15.94-11.33a7.41 7.41 0 0 0 .07.8c.66 4.87 6.11 7.52 14.31 6.4 10.35-1.41 17.86-7.64 22.89-16zm-142.3 27.56c-1.9.26-3-.93-3.22-2.77-.09-.65-.07-1.38.72-4.52 1-4.13 3-8.58 7.64-9.21 2.08-.29 3.35 1.05 3.63 3.07.62 4.58-2.7 12.6-8.77 13.43zm120.25-15.65c-2.08.28-5.35-1-5.79-4.24-.69-5.05 4.06-8.43 7.64-11a6.91 6.91 0 0 0 -.53 3.64c.38 2.8 2.19 2.73 2.67 6.24a4.68 4.68 0 0 1 -3.99 5.36z"/><path d="m8.32 72.63-3.57.48.71-4.33 3-.41c21.08-2.87 28.41-33.64 31.11-50.26l2.07-12.7-20.41 2.78-2.07 12.7 8.13-1.11-4.72 29 .49-.06c4.48-8.49 7.2-22.78 9-33.72l-8.13 1.1.69-4.23 12.19-1.66-.52 3.2c-2.56 15.59-8.29 48.17-27.07 50.72l-7.14 1-2.08 12.77 7.43-1c13.08-1.8 25.27-14.76 27.57-29l-.4.05c-4.82 12.47-14.98 23.14-26.28 24.68z"/></g><path d="m39.37 31.46 3.09 4.58 5.53.05-3.4 4.36 1.66 5.27-5.2-1.89-4.5 3.21.19-5.52-4.44-3.29 5.31-1.53z" fill="#ee2f66"/></svg>